<?xml version="1.0" standalone="no"?>
<!DOCTYPE svg PUBLIC "-//W3C//DTD SVG 20010904//EN"
 "http://www.w3.org/TR/2001/REC-SVG-20010904/DTD/svg10.dtd">
<svg version="1.0" xmlns="http://www.w3.org/2000/svg"
 width="866.000000pt" height="650.000000pt" viewBox="0 0 866.000000 650.000000"
 preserveAspectRatio="xMidYMid meet">

<g transform="translate(0.000000,650.000000) scale(0.100000,-0.100000)"
fill="#000000" stroke="none">
<path d="M2805 4879 c-427 -37 -650 -82 -885 -181 -119 -50 -427 -209 -560
-288 -193 -116 -276 -150 -415 -170 -44 -7 -98 -20 -121 -29 -63 -28 -138
-134 -194 -275 -40 -99 -43 -186 -10 -290 12 -38 23 -78 26 -90 2 -12 24 -63
50 -115 54 -109 102 -162 217 -239 l77 -53 0 -157 c0 -232 21 -310 117 -434
l44 -58 -133 0 -133 0 130 -54 c72 -29 157 -65 190 -79 64 -27 180 -47 275
-47 128 0 511 -51 990 -131 349 -58 480 -87 609 -133 526 -190 903 -321 983
-342 106 -27 211 -35 588 -44 235 -5 462 -17 610 -30 175 -17 315 -23 550 -24
367 -1 318 -9 890 134 546 137 929 244 916 257 -2 3 -58 11 -123 19 -150 17
-276 35 -285 41 -4 2 9 19 30 37 34 31 162 231 162 254 0 5 19 12 42 15 31 4
49 14 65 34 35 44 190 276 196 294 5 14 21 17 91 18 118 2 184 17 218 51 15
16 28 33 28 39 0 20 -87 95 -163 141 l-75 45 41 20 c36 17 43 26 53 69 13 49
49 114 135 239 27 39 49 78 49 86 0 29 -37 77 -71 93 -19 9 -86 37 -149 64
-63 27 -143 68 -177 91 -85 58 -122 75 -243 116 -142 47 -275 75 -422 88 -68
5 -193 23 -278 39 -85 15 -240 38 -345 49 -235 26 -396 50 -455 67 -57 16
-329 51 -520 66 -80 6 -151 16 -159 22 -7 6 -64 74 -127 151 -143 178 -237
291 -277 334 -60 65 -203 113 -487 165 -80 15 -201 38 -270 51 -121 24 -238
33 -670 55 -107 6 -242 14 -300 20 -121 11 -186 11 -325 -1z m315 -48 l55 -7
-60 -8 c-110 -15 -116 -30 -55 -141 46 -84 87 -185 107 -270 7 -33 22 -78 32
-100 35 -75 44 -100 48 -125 3 -13 7 -27 11 -30 8 -6 13 -32 16 -72 0 -14 5
-24 10 -20 5 3 7 -2 3 -10 -10 -26 56 -30 460 -22 l382 7 10 -24 c8 -22 21
-27 132 -48 68 -12 194 -31 279 -41 233 -28 532 -75 745 -116 201 -39 268 -63
342 -126 l38 -32 -30 33 c-16 19 -43 42 -60 52 -16 11 -25 19 -20 19 6 0 24
-9 41 -19 17 -10 66 -31 110 -46 82 -28 254 -111 254 -122 0 -3 -64 -3 -142 1
-154 7 -258 -6 -362 -45 -79 -29 -99 -55 -174 -229 -9 -21 -11 -22 -11 -5 -1
20 30 147 43 175 6 14 -16 17 -151 28 -87 7 -237 21 -333 32 -96 11 -240 27
-320 35 -80 8 -298 30 -485 50 -436 45 -870 85 -917 85 -46 0 -52 10 -35 52
13 31 15 32 63 30 39 -2 45 0 31 9 -10 6 -29 8 -43 5 -14 -4 -24 -2 -24 4 0 5
5 10 10 10 6 0 10 11 10 25 0 16 6 25 15 25 8 0 15 8 15 18 0 14 -2 15 -10 2
-11 -17 -13 -6 -4 27 4 13 11 20 17 16 6 -4 8 2 5 15 -4 14 -2 20 4 16 6 -4 8
1 3 15 -8 26 -15 26 205 1 96 -10 272 -28 390 -40 620 -59 1420 -178 1564
-233 39 -15 81 -54 64 -60 -7 -2 -10 -8 -6 -12 4 -4 14 -3 22 4 19 16 33 12
89 -26 57 -39 62 -41 41 -8 -52 79 -278 169 -579 230 -66 13 -289 47 -495 75
-296 40 -423 52 -606 60 -247 10 -627 45 -653 60 -14 8 -14 9 3 10 15 0 18 5
13 33 -5 28 -5 29 5 10 15 -32 30 -29 17 3 -15 40 -21 48 -28 35 -4 -6 -20 20
-35 57 -16 37 -35 80 -42 96 -8 16 -14 39 -14 50 1 19 2 19 11 3 5 -9 7 -22 3
-29 -4 -7 -3 -8 4 -4 7 4 12 2 12 -5 0 -7 3 -10 6 -7 3 4 -6 42 -19 85 -14 43
-28 95 -32 116 -4 20 -11 37 -15 37 -4 0 1 -35 11 -77 26 -108 22 -112 -11
-15 -33 94 -123 288 -146 313 -14 16 -14 18 5 24 32 10 25 25 -11 26 -31 1
-31 1 -8 9 l25 7 -25 7 c-32 9 -434 -9 -565 -25 -121 -14 -271 -61 -301 -94
-37 -40 -114 -295 -114 -376 0 -23 -3 -39 -6 -36 -15 15 -2 112 30 233 19 71
32 132 30 135 -6 10 -81 -6 -99 -21 -18 -15 -20 1 -3 18 16 16 -5 16 -34 1
-11 -6 -22 -8 -25 -5 -8 8 135 74 199 92 60 18 119 32 163 40 17 3 48 11 70
19 128 42 658 78 835 56z m815 -31 c61 -6 202 -29 315 -51 406 -79 566 -130
617 -197 28 -37 236 -289 326 -395 27 -32 46 -61 42 -65 -4 -4 -20 9 -36 28
-16 19 -29 29 -29 23 0 -7 10 -21 22 -33 12 -11 17 -20 10 -20 -15 0 -45 46
-38 58 3 6 -1 16 -10 23 -9 7 -29 32 -45 56 -17 24 -34 41 -38 38 -5 -2 -14 8
-21 24 -6 16 -18 32 -26 35 -8 3 -14 12 -14 20 0 8 -4 16 -9 18 -5 2 -43 49
-85 105 -104 141 -139 157 -505 234 -102 21 -226 48 -276 59 -122 27 -597 44
-834 30 -168 -10 -231 -17 -231 -26 0 -2 18 -41 40 -85 23 -44 38 -85 34 -91
-4 -6 -3 -8 3 -5 11 7 43 -59 108 -217 45 -110 89 -199 107 -213 9 -8 138 -11
418 -11 451 -1 872 -15 910 -30 34 -14 -86 -16 -230 -3 -180 17 -792 23 -960
11 -126 -10 -154 -9 -161 2 -5 7 -45 104 -90 216 -45 111 -84 201 -86 199 -2
-3 1 -16 7 -31 5 -15 10 -33 10 -39 0 -7 -18 31 -39 83 -21 52 -53 127 -69
165 -17 39 -28 73 -24 77 28 27 645 33 887 8z m-1442 -45 c-196 -20 -329 -52
-378 -93 -12 -9 -9 -6 5 8 49 49 261 97 425 98 73 0 68 -2 -52 -13z m1507 -45
c22 -7 21 -8 -12 -9 -21 -1 -38 4 -38 9 0 11 14 11 50 0z m-997 -130 c66 -151
119 -286 107 -274 -9 9 -170 388 -170 400 0 14 9 -3 63 -126z m1210 99 c44 -9
57 -16 57 -30 0 -10 -4 -21 -10 -24 -5 -3 -10 -2 -10 4 0 5 -26 13 -57 17 -32
4 -67 11 -78 15 -14 6 -10 7 15 4 100 -12 135 -14 105 -5 -16 5 -57 13 -90 18
-46 7 -52 10 -24 11 20 0 61 -4 92 -10z m-1299 -15 c7 -3 20 -18 30 -34 17
-30 137 -322 133 -326 -1 -1 -44 0 -94 3 -88 5 -92 7 -88 27 14 58 30 276 21
273 -11 -3 -49 -111 -82 -230 l-16 -59 -232 7 -232 7 -31 -26 c-18 -15 -35
-36 -38 -47 -6 -17 -12 -19 -43 -13 -58 11 -142 44 -142 57 0 19 62 271 69
279 11 12 382 78 491 87 97 9 226 6 254 -5z m-810 -66 c-1 -18 -13 -64 -28
-103 -23 -60 -69 -221 -90 -317 -5 -20 -1 -33 14 -48 l21 -21 -28 7 c-16 4
-29 8 -30 8 -1 1 2 20 8 41 6 21 9 55 6 74 -3 20 -3 30 0 22 6 -14 29 57 89
264 33 115 41 130 38 73z m2365 -18 c119 -29 265 -82 277 -101 3 -5 -19 0 -48
12 -117 47 -197 70 -306 89 -63 10 -117 22 -120 25 -15 14 87 2 197 -25z m116
20 c13 -5 14 -9 5 -9 -8 0 -24 4 -35 9 -13 5 -14 9 -5 9 8 0 24 -4 35 -9z
m-555 -12 c-1 -7 -9 -42 -19 -78 -14 -51 -20 -60 -25 -44 -6 20 8 105 20 126
8 12 24 10 24 -4z m21 -27 c-15 -28 -14 -38 2 -17 8 11 19 17 25 15 6 -2 -5
-22 -25 -43 l-36 -39 6 34 c7 46 28 97 34 82 2 -7 0 -21 -6 -32z m374 -11 c61
-12 159 -37 218 -56 l108 -35 33 -72 c18 -40 58 -114 88 -164 46 -76 53 -93
38 -93 -10 0 -20 10 -24 24 -6 26 -28 37 -126 62 -64 17 -98 18 -361 14 -147
-2 -171 -8 -153 -37 10 -16 32 -18 245 -19 239 0 354 -8 365 -26 11 -18 -2
-18 -87 -3 -62 11 -166 15 -401 15 l-318 0 -5 23 c-2 12 -13 73 -24 136 l-20
114 34 41 c19 23 48 50 64 61 32 21 42 41 15 31 -9 -4 -13 -2 -8 6 10 16 184
4 319 -22z m270 20 c13 -5 14 -9 5 -9 -8 0 -24 4 -35 9 -13 5 -14 9 -5 9 8 0
24 -4 35 -9z m-2995 -25 c-14 -8 -29 -14 -35 -14 -5 0 1 6 15 14 14 8 30 14
35 14 6 0 -1 -6 -15 -14z m58 -122 c-28 -60 -54 -112 -59 -117 -5 -5 -21 -3
-39 4 -28 12 -31 17 -26 44 4 19 24 48 51 73 25 23 45 47 45 53 0 39 -91 -45
-133 -123 -35 -67 -63 -88 -51 -40 11 44 31 79 66 113 33 31 160 100 184 100
8 0 -5 -38 -38 -107z m-118 88 c0 -5 -7 -12 -16 -15 -14 -5 -15 -4 -4 9 14 17
20 19 20 6z m-66 -49 c-35 -31 -59 -78 -69 -139 l-6 -41 -97 -6 c-53 -4 -128
-9 -167 -12 l-70 -5 120 64 c66 36 161 88 210 116 100 57 126 64 79 23z m3247
-21 c24 -15 56 -41 70 -57 33 -37 199 -260 199 -269 0 -8 -121 6 -143 17 -9 5
-35 43 -56 86 -22 42 -60 113 -85 157 -62 108 -61 115 15 66z m-1563 -176 c62
-155 80 -215 65 -215 -5 0 -14 26 -21 58 -6 31 -28 91 -48 132 -34 71 -74 184
-73 205 0 11 -3 20 77 -180z m1743 48 c13 -16 12 -17 -3 -4 -17 13 -22 21 -14
21 2 0 10 -8 17 -17z m-2144 -35 c-3 -7 -5 -2 -5 12 0 14 2 19 5 13 2 -7 2
-19 0 -25z m-153 14 c2 -4 1 -14 -4 -22 -7 -12 -42 -16 -165 -18 -147 -4 -155
-3 -155 15 0 11 3 23 7 26 9 10 311 9 317 -1z m-1111 -29 c-7 -2 -19 -2 -25 0
-7 3 -2 5 12 5 14 0 19 -2 13 -5z m50 -10 c-7 -2 -19 -2 -25 0 -7 3 -2 5 12 5
14 0 19 -2 13 -5z m1204 -25 c-3 -7 -5 -2 -5 12 0 14 2 19 5 13 2 -7 2 -19 0
-25z m-1249 -4 c35 -12 76 -38 125 -80 78 -69 178 -127 202 -118 8 4 12 10 9
15 -3 6 18 9 53 7 39 -2 57 -7 55 -16 -2 -14 15 -16 20 -2 2 6 41 12 88 15 51
3 79 1 71 -4 -10 -6 -2 -9 22 -8 21 0 37 4 37 7 0 9 134 -1 145 -11 12 -12 28
-12 20 0 -3 6 7 6 26 1 18 -5 43 -7 56 -4 12 4 31 3 40 -1 10 -4 45 -10 78
-12 33 -2 64 -8 69 -13 6 -6 15 -10 21 -10 5 0 3 5 -5 11 -11 8 16 9 95 4 195
-11 314 -21 320 -27 3 -3 -12 -49 -34 -104 -25 -62 -40 -91 -43 -79 -2 11 -4
-2 -4 -28 -1 -26 -5 -52 -11 -58 -10 -10 -687 31 -849 51 -39 5 -87 7 -106 3
-20 -3 -59 2 -91 11 -30 9 -75 16 -100 16 -46 0 -64 11 -52 30 5 7 11 8 19 1
8 -7 37 -6 86 3 69 11 72 13 53 27 -11 8 -21 19 -22 24 -1 6 -13 9 -26 7 -17
-2 -25 3 -30 19 -6 19 -9 20 -16 6 -7 -12 -62 -47 -75 -47 -6 0 11 47 24 68
13 20 13 25 1 33 -21 13 -29 11 -23 -6 4 -8 2 -15 -4 -15 -9 0 -14 -11 -29
-60 -8 -30 -4 -73 9 -82 9 -5 6 -7 -9 -5 -12 2 -26 6 -29 10 -4 4 -18 4 -31 1
-16 -5 -34 0 -52 13 -73 55 -220 104 -383 129 -78 12 -146 15 -278 11 -339
-11 -382 -32 -384 -187 -1 -43 -4 -73 -8 -67 -21 33 9 226 32 212 6 -3 8 0 5
7 -6 18 40 94 55 90 6 -1 9 2 5 8 -3 6 -11 7 -17 4 -5 -4 -2 5 7 20 10 14 21
26 24 26 4 0 8 6 8 13 0 19 44 77 59 77 7 0 14 5 16 10 3 11 26 17 102 25 28
3 84 11 125 19 41 7 94 11 119 9 28 -2 41 0 37 7 -8 13 40 13 66 0 13 -7 25
-7 37 -1 13 7 23 6 31 -2 7 -7 12 -7 11 -2 -2 6 -2 14 -1 19 2 14 170 -1 229
-20z m89 20 c-3 -3 -12 -4 -19 -1 -8 3 -5 6 6 6 11 1 17 -2 13 -5z m1150 -81
c-3 -10 -5 -4 -5 12 0 17 2 24 5 18 2 -7 2 -21 0 -30z m2274 20 c13 -16 12
-17 -3 -4 -17 13 -22 21 -14 21 2 0 10 -8 17 -17z m-2284 -75 c-3 -7 -5 -2 -5
12 0 14 2 19 5 13 2 -7 2 -19 0 -25z m1051 -25 l-3 -28 -128 -9 c-152 -11
-397 8 -397 31 0 9 19 13 68 14 37 0 90 4 117 7 28 4 117 9 198 10 l148 4 -3
-29z m215 -2 c8 -8 5 -11 -10 -11 -12 0 -24 4 -27 9 -3 5 -14 7 -24 4 -10 -2
-34 0 -53 6 -30 9 -25 10 34 7 38 -2 74 -9 80 -15z m800 12 c-7 -2 -19 -2 -25
0 -7 3 -2 5 12 5 14 0 19 -2 13 -5z m-2840 -10 c-13 -2 -35 -2 -50 0 -16 2 -5
4 22 4 28 0 40 -2 28 -4z m2482 -3 c58 -7 57 -7 -30 -7 -49 -1 -130 2 -180 6
l-90 8 120 0 c66 1 147 -3 180 -7z m-2670 -18 c-3 -3 -11 0 -18 7 -9 10 -8 11
6 5 10 -3 15 -9 12 -12z m952 -14 c-3 -8 -6 -5 -6 6 -1 11 2 17 5 13 3 -3 4
-12 1 -19z m2725 -8 c199 -22 288 -36 516 -79 84 -16 161 -28 170 -26 12 1 13
1 2 -3 -8 -3 24 -11 71 -18 47 -7 115 -23 150 -35 35 -12 83 -22 105 -23 23 0
40 -4 38 -8 -2 -3 15 -9 38 -13 75 -12 259 -56 386 -92 149 -42 284 -96 410
-164 85 -46 103 -52 173 -56 52 -4 79 -2 79 5 0 21 -108 108 -157 125 -28 10
-111 29 -184 42 -294 53 -359 68 -345 82 3 4 -1 15 -11 25 -9 10 -14 21 -11
24 11 10 271 -58 408 -107 74 -27 187 -75 251 -107 110 -56 195 -89 333 -127
32 -9 56 -18 54 -20 -2 -3 -20 0 -39 5 -73 19 -315 29 -844 36 l-550 7 -86
-76 c-87 -76 -171 -167 -175 -190 -1 -7 -12 -33 -23 -59 -12 -25 -24 -66 -27
-91 -5 -38 -3 -47 12 -55 23 -12 1228 -21 1240 -9 21 21 -38 26 -346 32 -356
6 -564 14 -557 22 6 5 874 -16 905 -23 12 -2 22 -12 22 -21 0 -14 10 -15 76
-10 42 3 86 12 99 21 13 9 25 12 27 7 9 -25 53 19 121 121 41 62 92 136 112
165 21 28 35 58 32 66 -12 32 -179 45 -844 68 -189 7 -343 14 -343 17 0 3 84
2 188 -2 103 -4 331 -11 507 -17 190 -5 352 -15 398 -23 75 -14 117 -36 117
-60 0 -6 -27 -45 -60 -86 -33 -41 -81 -114 -106 -163 -25 -48 -55 -94 -68
-102 -53 -35 -254 -45 -918 -45 l-638 0 -6 25 c-7 27 16 105 53 178 41 82 16
51 -36 -45 -28 -51 -51 -87 -51 -79 0 25 94 193 133 238 43 48 199 183 234
201 15 9 131 12 385 13 357 1 410 4 408 24 -1 12 -72 55 -158 95 -68 32 -76
35 -68 22 2 -4 -5 -8 -17 -9 -12 0 -16 1 -9 4 22 8 13 21 -20 29 -43 10 -39 9
-69 22 -32 13 -97 26 -122 24 -9 0 -15 3 -12 9 4 5 -2 9 -12 10 -10 0 -25 2
-33 4 -8 3 -69 16 -135 31 -66 14 -188 44 -270 65 -284 72 -533 121 -715 139
-58 5 -159 17 -225 25 -66 8 -158 19 -205 23 l-85 9 73 2 c40 0 154 -8 254
-19z m-627 -20 c40 -6 43 -7 15 -8 -19 0 -57 3 -85 8 -40 6 -43 7 -15 8 19 0
58 -3 85 -8z m135 -77 c259 -31 586 -101 765 -164 77 -27 192 -65 255 -84 63
-19 137 -45 164 -59 54 -26 98 -25 58 2 -34 22 -26 33 20 26 27 -5 39 -4 35 3
-17 27 -395 179 -619 249 -32 10 -56 19 -54 22 5 4 182 -33 236 -49 203 -62
458 -171 624 -267 43 -25 94 -51 113 -57 33 -11 29 -13 -68 -19 -57 -4 -211
-2 -343 4 l-238 11 -24 29 c-25 29 -171 109 -239 130 -22 7 -101 36 -175 65
-74 30 -180 63 -235 74 -133 27 -295 51 -345 51 -22 0 -40 5 -40 10 0 6 6 10
13 11 6 1 -24 9 -68 20 l-80 18 60 -5 c33 -3 116 -12 185 -21z m-3670 -53 c29
-21 90 -92 109 -127 11 -21 10 -23 -15 -23 -21 0 -25 -3 -19 -17 35 -88 62
-166 91 -268 47 -166 52 -175 86 -182 34 -7 30 -12 -17 -29 -31 -10 -36 -9
-48 10 -20 31 -60 138 -96 254 -18 57 -46 127 -63 155 -79 131 -120 161 -208
150 -49 -6 -52 -5 -42 13 13 25 50 58 87 78 37 20 96 14 135 -14z m5023 23
c-7 -2 -19 -2 -25 0 -7 3 -2 5 12 5 14 0 19 -2 13 -5z m224 -29 c-3 -3 -12 -4
-19 -1 -8 3 -5 6 6 6 11 1 17 -2 13 -5z m66 -11 c-7 -2 -19 -2 -25 0 -7 3 -2
5 12 5 14 0 19 -2 13 -5z m-958 -13 c3 -5 1 -10 -4 -10 -6 0 -11 5 -11 10 0 6
2 10 4 10 3 0 8 -4 11 -10z m1028 3 c-7 -2 -19 -2 -25 0 -7 3 -2 5 12 5 14 0
19 -2 13 -5z m364 -39 c-3 -3 -12 -4 -19 -1 -8 3 -5 6 6 6 11 1 17 -2 13 -5z
m46 -11 c-7 -2 -19 -2 -25 0 -7 3 -2 5 12 5 14 0 19 -2 13 -5z m44 -9 c-3 -3
-12 -4 -19 -1 -8 3 -5 6 6 6 11 1 17 -2 13 -5z m40 -10 c-3 -3 -12 -4 -19 -1
-8 3 -5 6 6 6 11 1 17 -2 13 -5z m73 -19 c19 -7 28 -13 20 -13 -8 0 -31 6 -50
13 -19 7 -28 13 -20 13 8 0 31 -6 50 -13z m-1265 -13 c-3 -3 -11 0 -18 7 -9
10 -8 11 6 5 10 -3 15 -9 12 -12z m-4808 -51 c51 -37 97 -96 128 -164 26 -57
90 -271 100 -336 l6 -36 -16 28 c-9 15 -29 73 -46 129 -48 160 -102 251 -177
299 -52 33 -114 39 -150 13 -33 -23 -70 -86 -87 -147 l-14 -52 0 41 c-2 97 51
193 128 234 50 27 82 25 128 -9z m6336 -28 c15 -7 27 -16 27 -18 0 -6 -62 19
-87 35 -15 9 -14 10 7 4 14 -3 37 -13 53 -21z m-5328 -43 c346 -20 670 -40
723 -46 50 -6 52 -8 52 -36 0 -30 0 -30 -47 -24 -27 3 -133 11 -238 16 -104 6
-257 15 -340 20 -82 6 -231 15 -329 20 -99 6 -183 13 -187 15 -3 3 -9 16 -11
30 l-5 26 101 -6 c55 -3 182 -10 281 -15z m1105 -70 c58 -5 188 -16 290 -25
102 -8 201 -18 220 -21 l35 -6 -25 -14 c-15 -8 -57 -13 -108 -14 -89 0 -453
24 -592 40 -47 6 -90 10 -96 10 -6 0 -16 12 -23 26 l-12 26 103 -6 c57 -4 150
-11 208 -16z m3660 -20 c0 -6 -29 -10 -67 -10 -48 0 -64 3 -53 10 20 13 120
13 120 0z m-2709 -40 c52 -16 114 -42 139 -58 117 -74 319 -392 250 -392 -5 0
-11 8 -14 18 -4 9 -16 28 -27 42 -20 24 -20 23 1 -12 24 -42 11 -51 -19 -15
-11 12 -57 67 -104 122 -125 148 -201 196 -340 215 -87 12 -188 0 -247 -30
-46 -24 -121 -106 -149 -164 -31 -63 -69 -221 -77 -319 -6 -81 -8 -86 -26 -76
-43 23 -325 86 -463 104 -99 13 -103 14 -107 46 -3 16 -3 29 -2 29 2 0 59 -13
126 -29 68 -17 152 -34 188 -40 69 -11 230 -24 230 -18 0 1 11 67 25 146 36
207 87 317 182 395 97 81 251 94 434 36z m1354 -50 c10 -39 15 -74 11 -77 -3
-4 -6 -1 -6 6 0 29 -35 84 -67 106 -29 19 -32 24 -16 28 55 14 60 11 78 -63z
m880 62 c-49 -41 -107 -83 -96 -69 16 21 5 22 -32 2 -15 -8 -43 -17 -63 -21
-19 -3 -37 -10 -40 -15 -3 -5 -12 -9 -21 -9 -23 0 -133 -81 -126 -93 3 -5 1
-7 -5 -3 -6 3 -17 -2 -24 -12 -12 -17 -48 -37 -48 -27 0 14 151 127 206 154
36 18 65 34 63 36 -4 3 -121 14 -384 35 l-90 8 100 0 c172 0 538 12 543 17 3
3 10 5 16 5 6 0 6 -3 1 -8z m-5260 -102 c23 -46 76 -222 74 -250 0 -8 -13 30
-28 85 -32 115 -63 189 -94 225 l-22 25 24 -20 c13 -11 33 -40 46 -65z m4302
59 c43 -27 66 -75 82 -166 12 -66 11 -75 -9 -119 -11 -27 -28 -57 -38 -67 -59
-66 -181 -76 -249 -21 -84 69 -83 212 4 313 66 78 145 100 210 60z m-4848 -49
c11 -24 11 -24 -3 -6 -9 11 -16 24 -16 30 0 12 5 7 19 -24z m90 -6 c14 -12
-19 -1 -35 12 -18 14 -18 14 6 3 14 -6 27 -13 29 -15z m412 0 l24 -26 -28 13
c-24 11 -31 10 -55 -8 -40 -30 -60 -70 -88 -179 -38 -143 -38 -301 -1 -397 25
-64 81 -157 94 -157 4 0 3 3 0 7 -6 5 65 43 81 43 3 0 -5 -12 -19 -27 -23 -27
-23 -27 8 1 36 33 49 30 39 -8 -7 -30 -57 -59 -82 -49 -12 4 -15 3 -10 -5 13
-22 -11 -12 -39 16 -57 56 -115 235 -115 351 0 82 24 234 50 322 15 50 29 75
55 98 43 38 55 38 86 5z m-254 -36 c-2 -13 -4 -5 -4 17 -1 22 1 32 4 23 2 -10
2 -28 0 -40z m4013 17 c113 -8 209 -15 214 -15 6 0 6 -3 0 -9 -10 -10 -453 22
-539 39 -57 11 -35 10 325 -15z m-4075 -16 c22 -10 33 -18 25 -18 -8 0 -37 11
-65 25 -55 26 -23 21 40 -7z m3293 21 c92 -15 131 -31 194 -79 49 -36 183
-196 213 -252 5 -10 17 -20 27 -22 10 -3 16 -11 13 -19 -3 -8 10 -32 28 -53
33 -39 101 -165 93 -172 -2 -2 -21 24 -42 59 -151 251 -263 370 -420 445 -70
34 -89 38 -169 41 -66 3 -114 -2 -175 -16 -47 -11 -87 -18 -90 -15 -11 11 51
51 102 66 98 30 131 32 226 17z m2362 -62 c0 -4 -7 -5 -15 -2 -8 4 -15 1 -15
-5 0 -6 12 -11 26 -11 23 0 25 -2 14 -15 -9 -11 -15 -12 -20 -5 -4 7 -14 2
-26 -11 l-19 -22 28 5 c26 5 37 -5 18 -16 -4 -3 -11 -19 -14 -36 -6 -25 -11
-30 -36 -30 -17 0 -31 6 -35 16 -4 12 -14 14 -36 9 -36 -8 -41 12 -9 41 14 12
18 25 14 41 -6 26 3 30 19 8 10 -14 17 -10 51 25 28 28 41 36 47 27 4 -6 8
-15 8 -19z m188 15 c-16 -2 -40 -2 -55 0 -16 2 -3 4 27 4 30 0 43 -2 28 -4z
m732 -14 c23 -6 -6 -7 -85 -4 -66 3 -133 9 -150 14 -40 11 188 2 235 -10z
m-5660 -13 c0 -8 -9 -17 -20 -21 -19 -6 -70 -60 -70 -74 0 -4 24 -7 53 -7 28
0 139 -17 246 -37 107 -20 208 -37 225 -37 17 0 103 -11 191 -25 295 -47 320
-41 43 10 -82 15 -148 30 -148 34 0 4 91 -11 203 -33 151 -30 196 -42 177 -48
-15 -5 -6 -6 25 -2 38 4 46 2 35 -6 -12 -9 -10 -10 10 -8 14 1 30 0 35 -3 6
-4 65 -19 132 -35 122 -29 123 -29 123 -58 0 -24 -3 -27 -22 -23 -13 3 -72 15
-133 27 -60 12 -182 36 -270 55 -88 18 -194 38 -235 45 -41 6 -191 32 -334 56
-142 25 -264 43 -270 41 -11 -4 107 -27 139 -27 10 0 16 -3 12 -6 -3 -3 -44
-1 -91 6 -84 13 -86 13 -80 39 5 23 4 24 -8 9 -11 -13 -22 -15 -58 -7 -25 4
-67 9 -95 9 -36 1 -44 4 -30 9 11 5 23 6 28 4 4 -2 6 0 5 6 -2 6 29 35 67 65
69 54 115 70 115 42z m3847 -8 c-3 -8 -6 -5 -6 6 -1 11 2 17 5 13 3 -3 4 -12
1 -19z m1533 0 c0 9 13 12 45 10 48 -3 54 -10 31 -34 -9 -9 -17 -10 -21 -4
-13 21 -46 10 -63 -21 -30 -55 -83 -119 -97 -119 -21 0 -19 14 5 35 11 10 20
23 20 30 0 6 11 21 25 33 14 13 23 27 20 33 -4 5 -1 8 7 7 9 -2 12 5 10 22 -2
20 -1 22 7 10 8 -11 11 -11 11 -2z m149 -10 c7 -18 3 -31 -15 -55 -25 -33 -31
-53 -15 -53 5 0 14 7 21 15 7 8 17 15 23 15 18 0 -25 -39 -71 -65 -52 -29 -52
-29 -52 -11 0 8 -13 24 -30 36 -37 27 -38 40 -2 40 16 0 32 8 39 19 7 11 23
21 35 23 18 2 23 9 23 31 -1 34 32 38 44 5z m-5380 -18 c52 -11 97 -23 100
-26 3 -4 -5 -4 -19 -1 -14 3 -67 13 -117 23 -51 9 -93 21 -93 26 0 5 8 7 18 4
9 -3 59 -14 111 -26z m3191 26 c0 -3 -4 -8 -10 -11 -5 -3 -10 -1 -10 4 0 6 5
11 10 11 6 0 10 -2 10 -4z m2308 -15 c21 -13 4 -57 -45 -111 -25 -28 -50 -50
-55 -50 -6 0 12 24 41 54 51 54 66 98 39 109 -7 3 -8 6 -3 6 6 0 16 -3 23 -8z
m-6294 -56 c-10 -31 -18 -106 -21 -195 -6 -157 5 -221 48 -294 l20 -35 -32
-17 c-31 -16 -33 -15 -46 2 -8 11 -21 44 -30 74 -24 84 -12 318 22 419 36 104
70 145 39 46z m-231 -14 c24 -24 -4 -21 -40 5 -59 44 -61 47 -15 26 24 -11 48
-24 55 -31z m72 -168 c0 -147 2 -164 28 -243 44 -132 87 -213 119 -224 41 -14
103 18 133 68 30 49 33 41 5 -13 -23 -47 -74 -91 -103 -91 -117 0 -222 246
-203 475 7 83 18 185 20 185 1 0 1 -71 1 -157z m3179 67 c50 -24 127 -99 160
-155 14 -23 38 -78 53 -121 25 -73 27 -90 28 -239 0 -182 -19 -283 -77 -401
-35 -73 -106 -144 -144 -144 -12 0 -24 -5 -26 -12 -2 -6 -29 -13 -60 -16 -101
-8 -183 54 -261 198 -60 109 -81 203 -81 365 -1 159 14 233 70 351 72 153 223
230 338 174z m-2847 -42 c-2 -13 -4 -5 -4 17 -1 22 1 32 4 23 2 -10 2 -28 0
-40z m666 45 c-7 -2 -19 -2 -25 0 -7 3 -2 5 12 5 14 0 19 -2 13 -5z m60 -10
c-7 -2 -19 -2 -25 0 -7 3 -2 5 12 5 14 0 19 -2 13 -5z m50 -10 c-7 -2 -19 -2
-25 0 -7 3 -2 5 12 5 14 0 19 -2 13 -5z m1175 0 c-10 -2 -28 -2 -40 0 -13 2
-5 4 17 4 22 1 32 -1 23 -4z m2102 -69 c30 -9 62 -26 71 -37 13 -16 23 -18 50
-13 19 3 111 6 204 7 162 0 174 -1 258 -29 48 -16 90 -32 94 -35 3 -4 -20 -5
-53 -2 -60 5 -369 20 -619 30 -195 8 -276 16 -273 26 2 5 37 36 78 68 l75 58
30 -28 c17 -15 55 -35 85 -45z m-3223 60 c-3 -3 -12 -4 -19 -1 -8 3 -5 6 6 6
11 1 17 -2 13 -5z m1204 -4 c27 -15 28 -100 2 -100 -29 1 -120 28 -96 29 25 1
43 21 19 21 -9 0 -16 7 -16 15 0 8 9 15 20 15 16 0 20 -7 20 -30 0 -16 4 -30
9 -30 5 0 16 -3 25 -6 11 -4 16 -1 16 10 0 9 -6 16 -14 16 -8 0 -18 5 -22 12
-5 8 0 9 14 6 33 -9 28 26 -5 39 -20 8 -23 11 -10 12 10 1 27 -4 38 -9z
m-1043 -20 c70 -12 249 -45 397 -75 149 -29 289 -56 313 -60 23 -4 42 -11 42
-16 0 -12 10 -14 -214 31 -111 21 -309 60 -441 85 -214 41 -274 55 -237 55 7
0 70 -9 140 -20z m909 -17 c-3 -10 -5 -4 -5 12 0 17 2 24 5 18 2 -7 2 -21 0
-30z m238 17 c14 -7 8 -8 -20 -3 -22 3 -42 7 -44 9 -9 8 45 2 64 -6z m-1685
-40 c11 -8 7 -9 -15 -4 -37 8 -45 14 -19 14 10 0 26 -5 34 -10z m1660 -9 c15
-28 13 -33 -12 -29 -15 2 -24 11 -26 26 -4 28 23 30 38 3z m2707 -15 c-14 -44
-18 -45 -15 -4 2 19 8 35 14 35 9 0 9 -9 1 -31z m-4232 -2 c28 -9 33 -13 17
-13 -31 -1 -111 19 -118 30 -6 10 40 2 101 -17z m-631 -6 c19 -27 5 -48 -19
-28 -16 14 -21 50 -6 50 6 0 17 -10 25 -22z m53 -90 c-2 -18 -4 -4 -4 32 0 36
2 50 4 33 2 -18 2 -48 0 -65z m5808 41 c151 -6 123 -7 -135 -3 -179 3 -341 9
-360 14 -35 9 76 7 495 -11z m689 -55 c67 -46 96 -77 96 -102 0 -22 -60 -40
-155 -46 -49 -4 -133 -11 -185 -16 -52 -5 -149 -12 -215 -15 -181 -7 -426 -23
-483 -31 -53 -7 -66 2 -37 26 9 8 50 11 127 9 127 -2 340 10 348 20 3 4 99 13
214 19 116 7 214 16 219 21 6 6 23 7 38 4 33 -6 85 12 93 33 5 13 -23 35 -88
70 -19 10 -54 54 -43 54 3 0 35 -21 71 -46z m-5724 -43 c129 -33 375 -87 545
-121 749 -149 1019 -207 1023 -220 3 -7 0 -10 -5 -7 -16 10 -408 93 -758 162
-187 36 -407 79 -490 96 -173 34 -565 137 -580 151 -7 7 -3 8 10 5 11 -4 126
-33 255 -66z m541 14 c328 -67 926 -199 989 -219 90 -28 8 -15 -171 28 -233
56 -427 99 -804 176 -269 55 -331 70 -298 70 6 0 134 -25 284 -55z m654 7 c99
-22 224 -48 278 -58 66 -12 97 -22 97 -31 0 -10 -5 -11 -17 -4 -10 5 -54 16
-98 25 -206 41 -461 100 -470 109 -6 6 -3 7 10 3 11 -3 101 -23 200 -44z
m2043 41 c-10 -2 -28 -2 -40 0 -13 2 -5 4 17 4 22 1 32 -1 23 -4z m851 -9 c8
-7 -64 -2 -89 6 -16 6 -6 7 30 3 30 -3 57 -7 59 -9z m-1014 -9 c326 -31 473
-55 597 -96 95 -31 144 -41 263 -52 136 -13 166 -19 153 -32 -8 -8 -220 -43
-306 -51 -78 -7 -92 -2 -92 39 0 14 4 16 19 7 27 -14 99 -14 84 1 -30 30 -369
84 -689 110 -167 13 -201 10 -206 -23 -5 -32 -24 -33 -53 -2 -27 29 -34 81
-13 102 16 16 50 15 243 -3z m717 -12 c40 -37 98 -44 357 -48 135 -1 274 -6
309 -10 l62 -8 0 27 c0 31 11 33 36 5 17 -19 26 -20 86 -14 44 4 68 3 68 -4 0
-5 -24 -12 -52 -14 -75 -6 127 1 392 13 447 21 720 16 693 -11 -6 -6 -144 -14
-309 -19 -164 -5 -416 -14 -559 -20 -143 -6 -289 -8 -325 -5 -36 3 -227 10
-425 16 l-360 11 -37 38 c-29 30 -48 40 -83 46 -25 3 -49 4 -52 0 -4 -3 7 -6
23 -7 16 0 47 -9 69 -20 40 -19 36 -19 -40 0 -22 5 -89 15 -150 22 -219 25
-217 27 27 25 238 -1 247 -2 270 -23z m698 7 c14 -4 -67 -5 -180 -2 -113 2
-207 6 -209 8 -8 8 365 2 389 -6z m935 -10 c4 -6 -5 -10 -20 -10 -15 0 -24 4
-20 10 3 6 12 10 20 10 8 0 17 -4 20 -10z m-1207 -17 c242 -4 292 -7 292 -19
0 -16 -16 -19 -25 -4 -4 6 -103 10 -263 10 -186 1 -274 5 -317 15 -34 8 -42
12 -20 9 22 -3 172 -8 333 -11z m-4129 -163 c189 -49 346 -92 349 -95 8 -7
-146 2 -353 22 -88 8 -229 17 -313 20 -126 5 -152 8 -148 20 3 7 15 45 27 83
l21 70 36 -16 c21 -8 192 -55 381 -104z m-465 -75 c-4 -8 -11 -15 -16 -15 -6
0 -5 6 2 15 7 8 14 15 16 15 2 0 1 -7 -2 -15z m276 0 c85 -4 173 -10 195 -15
26 -6 -7 -7 -90 -3 -71 3 -186 7 -255 7 -69 1 -103 2 -75 4 36 2 45 6 35 13
-11 7 -9 8 10 5 14 -3 95 -8 180 -11z m3898 8 c-21 -2 -55 -2 -75 0 -21 2 -4
4 37 4 41 0 58 -2 38 -4z m1581 -120 c-50 -73 -91 -124 -96 -119 -3 3 5 15 17
28 12 13 40 49 61 81 22 31 42 57 45 57 3 0 -10 -21 -27 -47z m-4292 11 c-3
-3 -12 -4 -19 -1 -8 3 -5 6 6 6 11 1 17 -2 13 -5z m118 -24 c14 -7 8 -8 -20
-3 -22 3 -42 7 -44 9 -9 8 45 2 64 -6z m125 -21 c52 -12 128 -29 169 -39 41
-9 76 -21 78 -27 3 -8 -5 -9 -29 -2 -18 5 -94 23 -168 40 -74 17 -139 35 -144
40 -13 12 -14 12 94 -12z m3816 -74 c-5 -20 -15 -25 -61 -30 -30 -4 -66 -5
-80 -3 -14 3 -25 1 -25 -3 0 -5 -4 -9 -9 -9 -5 0 -4 11 2 25 10 22 14 23 24 9
7 -9 14 -11 17 -5 4 6 27 8 56 4 50 -6 50 -6 50 24 0 37 23 65 28 33 2 -12 1
-33 -2 -45z m-678 48 c-10 -2 -26 -2 -35 0 -10 3 -2 5 17 5 19 0 27 -2 18 -5z
m559 -9 c-3 -3 -12 -4 -19 -1 -8 3 -5 6 6 6 11 1 17 -2 13 -5z m60 0 c-3 -3
-12 -4 -19 -1 -8 3 -5 6 6 6 11 1 17 -2 13 -5z m-237 -73 c0 -5 12 -11 28 -13
37 -5 -90 -28 -149 -27 l-44 0 60 23 c64 25 105 32 105 17z m-113 -7 c-3 -3
-12 -4 -19 -1 -8 3 -5 6 6 6 11 1 17 -2 13 -5z m459 -29 c-10 -8 -22 -12 -26
-10 -4 2 -58 -2 -121 -10 -63 -7 -172 -16 -244 -19 l-130 -5 160 15 c126 12
344 36 375 42 3 1 -4 -5 -14 -13z m-568 -2 c-15 -2 -42 -2 -60 0 -18 2 -6 4
27 4 33 0 48 -2 33 -4z m-1048 -73 c190 -11 384 -20 432 -20 84 0 87 -1 120
-32 34 -34 110 -130 105 -134 -4 -4 -546 24 -777 40 -118 9 -288 18 -377 22
-90 4 -163 8 -163 9 0 2 36 110 45 134 6 16 8 16 615 -19z m-1295 -12 c-12
-56 -64 -147 -106 -188 -57 -55 -122 -84 -185 -84 -55 1 -132 32 -156 62 -11
14 -8 13 17 -3 60 -38 81 -45 139 -45 44 0 70 6 107 27 71 38 144 133 170 221
14 50 24 56 14 10z m2815 -61 c0 -2 -10 -12 -22 -23 l-23 -19 19 23 c18 21 26
27 26 19z m-45 -57 c-3 -5 -20 -19 -38 -31 l-32 -22 29 31 c28 30 55 44 41 22z"/>
<path d="M3197 3949 c7 -7 15 -10 18 -7 3 3 -2 9 -12 12 -14 6 -15 5 -6 -5z"/>
<path d="M3257 3949 c7 -7 15 -10 18 -7 3 3 -2 9 -12 12 -14 6 -15 5 -6 -5z"/>
<path d="M3180 3930 c0 -5 5 -10 11 -10 5 0 7 5 4 10 -3 6 -8 10 -11 10 -2 0
-4 -4 -4 -10z"/>
<path d="M3475 3910 c3 -5 10 -10 16 -10 5 0 9 5 9 10 0 6 -7 10 -16 10 -8 0
-12 -4 -9 -10z"/>
<path d="M3438 3903 c7 -3 16 -2 19 1 4 3 -2 6 -13 5 -11 0 -14 -3 -6 -6z"/>
<path d="M3528 3903 c7 -3 16 -2 19 1 4 3 -2 6 -13 5 -11 0 -14 -3 -6 -6z"/>
<path d="M3628 3903 c7 -3 16 -2 19 1 4 3 -2 6 -13 5 -11 0 -14 -3 -6 -6z"/>
<path d="M3723 3893 c9 -2 23 -2 30 0 6 3 -1 5 -18 5 -16 0 -22 -2 -12 -5z"/>
<path d="M3785 3880 c-3 -5 1 -10 9 -10 9 0 16 5 16 10 0 6 -4 10 -9 10 -6 0
-13 -4 -16 -10z"/>
<path d="M3940 3866 c0 -2 7 -7 16 -10 8 -3 12 -2 9 4 -6 10 -25 14 -25 6z"/>
<path d="M4070 3840 c-13 -9 -13 -11 0 -20 20 -13 39 -12 75 5 l30 15 -32 -6
c-17 -3 -34 0 -38 5 -8 13 -16 14 -35 1z m37 -16 c-3 -3 -12 -4 -19 -1 -8 3
-5 6 6 6 11 1 17 -2 13 -5z"/>
<path d="M4390 3802 c0 -12 78 -37 87 -29 3 4 -1 7 -10 7 -9 0 -16 5 -14 11 1
6 -13 13 -30 15 -18 2 -33 0 -33 -4z"/>
<path d="M4503 3783 c9 -2 25 -2 35 0 9 3 1 5 -18 5 -19 0 -27 -2 -17 -5z"/>
<path d="M3213 3773 c9 -2 25 -2 35 0 9 3 1 5 -18 5 -19 0 -27 -2 -17 -5z"/>
<path d="M4598 3773 c6 -2 18 -2 25 0 6 3 1 5 -13 5 -14 0 -19 -2 -12 -5z"/>
<path d="M4670 3766 c19 -8 27 -15 18 -15 -10 -1 -18 -5 -18 -11 0 -13 1 -13
38 6 38 18 39 22 10 22 -13 0 -36 3 -53 6 -28 6 -28 5 5 -8z"/>
<path d="M3338 3760 c12 -5 60 -12 105 -14 77 -5 79 -4 27 5 -89 16 -159 21
-132 9z"/>
<path d="M4755 3750 c-16 -7 -17 -9 -3 -9 9 -1 20 4 23 9 7 11 7 11 -20 0z"/>
<path d="M4800 3749 c0 -5 9 -9 20 -9 11 0 20 2 20 4 0 2 -9 6 -20 9 -11 3
-20 1 -20 -4z"/>
<path d="M4875 3740 c-3 -5 -18 -10 -33 -11 l-27 -1 25 -8 c36 -12 69 -12 51
-1 -7 5 -10 14 -7 20 4 6 5 11 2 11 -3 0 -8 -4 -11 -10z"/>
<path d="M3600 3729 c0 -5 5 -7 10 -4 6 3 10 8 10 11 0 2 -4 4 -10 4 -5 0 -10
-5 -10 -11z"/>
<path d="M3650 3736 c0 -2 11 -6 25 -8 14 -3 25 -1 25 3 0 5 -11 9 -25 9 -14
0 -25 -2 -25 -4z"/>
<path d="M3737 3733 c-8 -8 48 -33 72 -33 9 1 0 9 -19 20 -40 22 -44 23 -53
13z"/>
<path d="M4939 3723 c25 -3 31 -7 20 -13 -10 -7 -5 -9 16 -7 24 2 31 -2 33
-20 3 -19 10 -23 38 -23 27 0 34 4 34 20 0 16 -7 20 -30 20 -17 0 -33 6 -35
13 -3 7 -26 12 -58 13 -31 1 -38 -1 -18 -3z"/>
<path d="M5028 3713 c7 -3 16 -2 19 1 4 3 -2 6 -13 5 -11 0 -14 -3 -6 -6z"/>
<path d="M4828 3703 c7 -3 16 -2 19 1 4 3 -2 6 -13 5 -11 0 -14 -3 -6 -6z"/>
<path d="M5115 3700 c19 -8 93 -14 84 -6 -2 2 -26 6 -54 9 -32 4 -43 3 -30 -3z"/>
<path d="M3938 3693 c7 -3 16 -2 19 1 4 3 -2 6 -13 5 -11 0 -14 -3 -6 -6z"/>
<path d="M3983 3693 c9 -2 23 -2 30 0 6 3 -1 5 -18 5 -16 0 -22 -2 -12 -5z"/>
<path d="M5247 3673 c5 -13 1 -14 -27 -8 -25 5 -31 4 -28 -6 6 -17 81 -18 97
-1 9 9 9 13 -3 17 -9 3 -23 7 -30 9 -10 4 -13 0 -9 -11z"/>
<path d="M4093 3673 c9 -2 23 -2 30 0 6 3 -1 5 -18 5 -16 0 -22 -2 -12 -5z"/>
<path d="M4280 3656 c0 -2 11 -6 25 -8 13 -3 22 -1 19 3 -5 9 -44 13 -44 5z"/>
<path d="M4386 3651 c-3 -5 8 -11 24 -13 24 -4 27 -2 19 9 -13 15 -35 17 -43
4z"/>
<path d="M5225 3630 c-4 -6 7 -10 25 -10 18 0 29 4 25 10 -3 6 -15 10 -25 10
-10 0 -22 -4 -25 -10z"/>
<path d="M4488 3623 c7 -3 16 -2 19 1 4 3 -2 6 -13 5 -11 0 -14 -3 -6 -6z"/>
<path d="M4685 3610 c-30 -8 -30 -8 8 -9 20 0 37 4 37 9 0 11 -2 11 -45 0z"/>
<path d="M5480 3590 c0 -5 -7 -10 -15 -10 -8 0 -15 -4 -15 -9 0 -5 9 -7 20 -4
17 5 30 33 15 33 -3 0 -5 -4 -5 -10z"/>
<path d="M4838 3573 c6 -2 18 -2 25 0 6 3 1 5 -13 5 -14 0 -19 -2 -12 -5z"/>
<path d="M4940 3570 c0 -5 12 -10 26 -10 14 0 23 4 19 10 -3 6 -15 10 -26 10
-10 0 -19 -4 -19 -10z"/>
<path d="M5013 3563 c9 -2 23 -2 30 0 6 3 -1 5 -18 5 -16 0 -22 -2 -12 -5z"/>
<path d="M5354 3536 c-5 -14 -9 -15 -15 -4 -7 10 -9 10 -9 0 0 -18 29 -27 43
-13 8 8 8 14 -1 23 -9 9 -13 7 -18 -6z"/>
<path d="M5395 3540 c-3 -5 -2 -10 4 -10 5 0 13 5 16 10 3 6 2 10 -4 10 -5 0
-13 -4 -16 -10z"/>
<path d="M5208 3533 c6 -2 18 -2 25 0 6 3 1 5 -13 5 -14 0 -19 -2 -12 -5z"/>
<path d="M5288 3523 c6 -2 18 -2 25 0 6 3 1 5 -13 5 -14 0 -19 -2 -12 -5z"/>
<path d="M1428 4223 c7 -3 16 -2 19 1 4 3 -2 6 -13 5 -11 0 -14 -3 -6 -6z"/>
<path d="M1680 4110 c0 -5 5 -10 11 -10 5 0 7 5 4 10 -3 6 -8 10 -11 10 -2 0
-4 -4 -4 -10z"/>
<path d="M1980 4021 c-14 -4 -31 -19 -39 -33 -13 -23 -13 -29 3 -53 18 -27 28
-29 123 -14 16 3 26 34 19 57 -3 9 -20 25 -37 35 -33 18 -32 18 -69 8z"/>
<path d="M2138 4023 c12 -2 32 -2 45 0 12 2 2 4 -23 4 -25 0 -35 -2 -22 -4z"/>
<path d="M960 4011 l25 -7 -28 -7 c-15 -4 -32 -5 -38 -1 -5 3 -15 1 -22 -4 -7
-6 -25 -12 -39 -14 -53 -7 -42 -20 12 -14 30 3 129 10 220 16 91 6 174 15 185
20 11 5 27 11 35 14 8 2 -50 3 -130 1 -80 -2 -153 -7 -162 -10 -11 -4 -18 -3
-18 4 0 6 -15 11 -32 10 -31 -1 -31 -2 -8 -8z"/>
<path d="M1840 3990 c0 -5 5 -10 11 -10 5 0 7 5 4 10 -3 6 -8 10 -11 10 -2 0
-4 -4 -4 -10z"/>
<path d="M710 3939 c0 -5 5 -7 10 -4 6 3 10 8 10 11 0 2 -4 4 -10 4 -5 0 -10
-5 -10 -11z"/>
<path d="M1517 3939 c7 -7 15 -10 18 -7 3 3 -2 9 -12 12 -14 6 -15 5 -6 -5z"/>
<path d="M2998 3943 c6 -2 18 -2 25 0 6 3 1 5 -13 5 -14 0 -19 -2 -12 -5z"/>
<path d="M3087 3913 c-4 -3 -7 -11 -7 -17 0 -6 5 -5 12 2 6 6 9 14 7 17 -3 3
-9 2 -12 -2z"/>
<path d="M1626 3901 c5 -5 20 -12 34 -15 l25 -7 -25 15 c-28 17 -50 21 -34 7z"/>
<path d="M5672 3260 c0 -14 2 -19 5 -12 2 6 2 18 0 25 -3 6 -5 1 -5 -13z"/>
<path d="M4080 3130 c-92 -43 -178 -166 -217 -310 -25 -93 -25 -341 0 -423 31
-100 69 -170 124 -225 52 -52 139 -102 178 -101 12 0 4 5 -18 13 -89 32 -171
107 -212 194 -53 110 -60 147 -60 307 0 127 4 163 24 232 24 87 79 190 99 186
6 -2 19 8 28 21 8 14 27 32 42 42 24 16 23 13 -8 -25 -19 -24 -43 -53 -53 -65
l-18 -21 6 25 c5 21 4 22 -5 7 -6 -9 -8 -21 -5 -27 3 -5 -3 -27 -15 -49 -29
-58 -50 -169 -50 -265 0 -206 110 -436 243 -506 41 -22 49 -23 86 -11 23 6 56
25 74 40 113 100 169 433 111 657 -16 64 -90 202 -133 247 -61 67 -150 89
-221 57z m57 -68 c-15 -15 -27 -35 -27 -43 -1 -7 -8 -25 -16 -39 -10 -17 -13
-18 -9 -5 14 40 15 60 2 32 -7 -15 -16 -25 -19 -22 -3 4 -9 1 -14 -6 -4 -8 -3
-10 4 -5 18 11 14 -15 -9 -54 -18 -32 -20 -33 -14 -7 8 38 -2 34 -20 -9 -18
-43 -20 -82 -3 -46 6 12 17 22 23 22 7 0 15 10 18 22 4 12 8 20 11 17 3 -2 -4
-36 -15 -74 -44 -155 -34 -326 25 -450 41 -87 75 -128 135 -162 25 -15 48 -28
51 -30 10 -9 -28 -23 -62 -23 -48 0 -108 52 -145 123 -28 56 -78 251 -88 342
-10 101 44 329 75 310 5 -3 7 0 4 8 -5 15 90 127 109 127 6 0 -1 -13 -16 -28z
m161 -524 l24 -27 -21 -30 c-26 -36 -41 -40 -41 -10 0 12 -8 27 -17 34 -15 11
-15 17 -4 56 12 38 14 41 23 23 6 -10 22 -31 36 -46z"/>
<path d="M3466 3041 c-4 -7 -5 -15 -2 -18 9 -9 19 4 14 18 -4 11 -6 11 -12 0z"/>
<path d="M5268 2863 c6 -2 18 -2 25 0 6 3 1 5 -13 5 -14 0 -19 -2 -12 -5z"/>
<path d="M5588 2823 c6 -2 18 -2 25 0 6 3 1 5 -13 5 -14 0 -19 -2 -12 -5z"/>
<path d="M5648 2813 c6 -2 18 -2 25 0 6 3 1 5 -13 5 -14 0 -19 -2 -12 -5z"/>
<path d="M5713 2803 c9 -2 23 -2 30 0 6 3 -1 5 -18 5 -16 0 -22 -2 -12 -5z"/>
<path d="M7292 2440 c0 -14 2 -19 5 -12 2 6 2 18 0 25 -3 6 -5 1 -5 -13z"/>
</g>
</svg>
